<?xml version="1.0" encoding="UTF-8" standalone="no"?>
<svg
   id="svg227085"
   viewBox="0 0 576 232"
   height="232"
   width="576"
   version="1.1"
   sodipodi:docname="logo.svg"
   xmlns:inkscape="http://www.inkscape.org/namespaces/inkscape"
   xmlns:sodipodi="http://sodipodi.sourceforge.net/DTD/sodipodi-0.dtd"
   xmlns:xlink="http://www.w3.org/1999/xlink"
   xmlns="http://www.w3.org/2000/svg"
   xmlns:svg="http://www.w3.org/2000/svg"
   xmlns:rdf="http://www.w3.org/1999/02/22-rdf-syntax-ns#"
   xmlns:cc="http://creativecommons.org/ns#"
   xmlns:dc="http://purl.org/dc/elements/1.1/">
  <sodipodi:namedview
     id="namedview23"
     pagecolor="#505050"
     bordercolor="#eeeeee"
     borderopacity="1"
     inkscape:showpageshadow="0"
     inkscape:pageopacity="0"
     inkscape:pagecheckerboard="0"
     inkscape:deskcolor="#505050"
     showgrid="false" />
  <metadata
     id="metadata227091">
    <rdf:rdf>
      <cc:work
         rdf:about="">
        <dc:format>image/svg+xml</dc:format>
        <dc:type
           rdf:resource="http://purl.org/dc/dcmitype/StillImage" />
      </cc:work>
    </rdf:rdf>
  </metadata>
  <defs
     id="defs227089" />
  <linearGradient
     spreadMethod="pad"
     y2="0.30000001"
     x2="-0.1"
     y1="1.2"
     x1="0.30000001"
     id="3d_gradient2-logo-a4a76b0c-1ef6-4900-915c-730fd43074b0">
    <stop
       id="stop227066"
       stop-opacity="1"
       stop-color="#ffffff"
       offset="0%"
       style="--darkreader-inline-stopcolor: #181a1b;"
       data-darkreader-inline-stopcolor="" />
    <stop
       id="stop227068"
       stop-opacity="1"
       stop-color="#000000"
       offset="100%"
       style="--darkreader-inline-stopcolor: #000000;"
       data-darkreader-inline-stopcolor="" />
  </linearGradient>
  <linearGradient
     gradientTransform="rotate(-30)"
     spreadMethod="pad"
     y2="0.30000001"
     x2="-0.1"
     y1="1.2"
     x1="0.30000001"
     id="3d_gradient3-logo-a4a76b0c-1ef6-4900-915c-730fd43074b0">
    <stop
       id="stop227071"
       stop-opacity="1"
       stop-color="#ffffff"
       offset="0%"
       style="--darkreader-inline-stopcolor: #181a1b;"
       data-darkreader-inline-stopcolor="" />
    <stop
       id="stop227073"
       stop-opacity="1"
       stop-color="#cccccc"
       offset="50%"
       style="--darkreader-inline-stopcolor: #35393b;"
       data-darkreader-inline-stopcolor="" />
    <stop
       id="stop227075"
       stop-opacity="1"
       stop-color="#000000"
       offset="100%"
       style="--darkreader-inline-stopcolor: #000000;"
       data-darkreader-inline-stopcolor="" />
  </linearGradient>
  <g
     id="logo-group"
     transform="translate(-224,-268)">
    <image
       xlink:href=""
       id="container"
       style="display:none"
       x="272"
       y="144"
       width="480"
       height="480" />
    <g
       id="logo-center">
      <image
         xlink:href=""
         id="icon_container"
         style="display:none"
         x="0"
         y="0" />
      <g
         id="slogan"
         style="font-style:normal;font-weight:400;font-size:32px;line-height:1;font-family:Montserrat;font-variant-ligatures:none;text-align:center;text-anchor:middle" />
      <g
         id="title"
         style="font-style:normal;font-weight:700;font-size:72px;line-height:1;font-family:'Comfortaa Bold Alt2';font-variant-ligatures:none;text-align:center;text-anchor:middle">
        <path
           id="path227094"
           style="font-style:normal;font-weight:700;font-size:72px;line-height:1;font-family:'Comfortaa Bold Alt2';font-variant-ligatures:none;text-align:center;text-anchor:middle"
           d="m 446.4845,0.216 c 1.008,0 1.872,-0.36 2.592,-1.08 0.72,-0.72 1.008,-1.584 1.008,-2.592 V -21.96 c 0,-5.04 -1.8,-9.36 -5.328,-12.96 -3.6,-3.6 -7.992,-5.4 -13.032,-5.4 -5.112,0 -9.432,1.8 -13.032,5.4 -3.6,3.6 -5.4,7.92 -5.4,12.96 v 18.504 c 0,1.008 0.36,1.872 1.08,2.592 0.72,0.72 1.584,1.008 2.52,1.008 1.008,0 1.872,-0.288 2.592,-1.008 0.72,-0.72 1.008,-1.584 1.008,-2.592 V -21.96 c 0,-3.024 1.152,-5.688 3.312,-7.848 2.16,-2.232 4.824,-3.312 7.92,-3.312 3.096,0 5.688,1.08 7.92,3.312 2.16,2.16 3.24,4.824 3.24,7.848 v 18.576 c 0,0.936 0.36,1.8 1.08,2.52 0.72,0.72 1.584,1.08 2.52,1.08 z"
           stroke-width="0"
           stroke-linejoin="miter"
           stroke-miterlimit="2"
           fill="#41badf"
           stroke="#41badf"
           transform="matrix(2.51,0,0,2.51,-785.36378,434.51124)"
           data-darkreader-inline-stroke=""
           data-darkreader-inline-fill="" />
        <path
           id="path227096"
           style="font-style:normal;font-weight:700;font-size:72px;line-height:1;font-family:'Comfortaa Bold Alt2';font-variant-ligatures:none;text-align:center;text-anchor:middle"
           d="m 479.29062,0.288 c 4.752,0 8.928,-1.44 12.6,-4.464 0.79201,-0.576 1.152,-1.368 1.296,-2.304 0.072,-1.008 -0.144,-1.8 -0.79199,-2.592 -0.57601,-0.72 -1.36801,-1.152 -2.30401,-1.224 -0.936,-0.072 -1.8,0.144 -2.52,0.792 -2.44799,1.944 -5.184,2.88 -8.28,2.88 -3.6,0 -6.696,-1.224 -9.21599,-3.816 -2.59201,-2.52 -3.81601,-5.616 -3.81601,-9.216 0,-3.6 1.224,-6.696 3.81601,-9.288 2.51999,-2.52 5.61599,-3.816 9.21599,-3.816 2.952,0 5.61601,0.936 7.992,2.736 2.30401,1.8 3.816,4.104 4.608,6.912 h -12.6 c -0.936,0 -1.79999,0.36 -2.448,1.008 -0.648,0.648 -1.00799,1.512 -1.00799,2.448 0,0.936 0.35999,1.8 1.00799,2.448 0.64801,0.648 1.512,1.008 2.448,1.008 h 16.56 c 0.93601,0 1.728,-0.36 2.37601,-1.008 0.71999,-0.648 1.07999,-1.512 1.07999,-2.448 0,-5.544 -2.016,-10.224 -5.904,-14.112 -3.88799,-3.888 -8.56799,-5.904 -14.112,-5.904 -5.544,0 -10.224,2.016 -14.112,5.904 -3.888,3.888 -5.83199,8.568 -5.83199,14.112 0,5.544 1.94399,10.224 5.83199,14.112 3.888,3.888 8.568,5.832 14.112,5.832 z"
           stroke-width="0"
           stroke-linejoin="miter"
           stroke-miterlimit="2"
           fill="#41badf"
           stroke="#41badf"
           transform="matrix(2.51,0,0,2.51,-777.83378,434.51124)"
           data-darkreader-inline-stroke=""
           data-darkreader-inline-fill="" />
        <path
           id="path227098"
           style="font-style:normal;font-weight:700;font-size:72px;line-height:1;font-family:'Comfortaa Bold Alt2';font-variant-ligatures:none;text-align:center;text-anchor:middle"
           d="m 539.56137,-39.528 c -1.008,0 -1.87199,0.36 -2.59199,1.08 -0.72001,0.72 -1.00801,1.512 -1.00801,2.52 V -18 c 0,3.096 -1.15199,5.76 -3.312,7.92 -2.232,2.232 -4.824,3.312 -7.92,3.312 -3.096,0 -5.68799,-1.08 -7.91999,-3.312 -2.16001,-2.16 -3.24,-4.824 -3.24,-7.92 v -17.928 c 0,-1.008 -0.36,-1.8 -1.08001,-2.52 -0.71999,-0.72 -1.512,-1.08 -2.51999,-1.08 -1.00801,0 -1.87201,0.36 -2.59201,1.08 -0.72,0.72 -1.008,1.512 -1.008,2.52 V -18 c 0,5.112 1.728,9.432 5.32801,13.032 3.59999,3.6 7.92,5.4 13.03199,5.4 5.04,0 9.43201,-1.8 13.03201,-5.4 3.59999,-3.6 5.4,-7.92 5.4,-13.032 v -17.928 c 0,-1.008 -0.36001,-1.8 -1.08001,-2.52 -0.72,-0.72 -1.51199,-1.08 -2.52,-1.08 z"
           stroke-width="0"
           stroke-linejoin="miter"
           stroke-miterlimit="2"
           fill="#41badf"
           stroke="#41badf"
           transform="matrix(2.51,0,0,2.51,-770.30378,434.51124)"
           data-darkreader-inline-stroke=""
           data-darkreader-inline-fill="" />
        <path
           id="path227100"
           style="font-style:normal;font-weight:700;font-size:72px;line-height:1;font-family:'Comfortaa Bold Alt2';font-variant-ligatures:none;text-align:center;text-anchor:middle"
           d="m 606.8555,-36.144 c -3.024,-3.024 -6.696,-4.536 -11.016,-4.536 -4.32,0 -7.992,1.512 -11.016,4.536 -0.36,0.36 -0.648,0.72 -1.008,1.08 -0.288,-0.36 -0.648,-0.72 -0.936,-1.08 -3.096,-3.024 -6.768,-4.536 -11.088,-4.536 -4.32,0 -7.992,1.512 -11.016,4.536 -3.024,3.096 -4.536,6.768 -4.536,11.088 v 21.6 c 0,1.008 0.288,1.8 1.008,2.52 0.72,0.72 1.584,1.08 2.592,1.08 0.936,0 1.8,-0.36 2.52,-1.08 0.72,-0.72 1.08,-1.512 1.08,-2.52 v -21.6 c 0,-2.304 0.792,-4.32 2.448,-5.976 1.656,-1.656 3.6,-2.448 5.904,-2.448 2.376,0 4.32,0.792 5.976,2.448 1.656,1.656 2.448,3.672 2.448,5.976 v 21.6 c 0,1.008 0.36,1.8 1.08,2.52 0.72,0.72 1.512,1.08 2.52,1.08 1.008,0 1.872,-0.36 2.52,-1.08 0.72,-0.72 1.08,-1.512 1.08,-2.52 v -21.6 c 0,-1.512 0.36,-2.952 1.152,-4.248 0.72,-1.296 1.728,-2.304 3.024,-3.024 1.296,-0.792 2.736,-1.152 4.248,-1.152 2.304,0 4.32,0.792 5.904,2.448 1.656,1.656 2.52,3.672 2.52,5.976 v 21.6 c 0,1.008 0.288,1.8 1.008,2.52 0.72,0.72 1.584,1.08 2.592,1.08 0.936,0 1.8,-0.36 2.52,-1.08 0.72,-0.72 1.08,-1.512 1.08,-2.52 v -21.6 c 0,-4.32 -1.584,-7.992 -4.608,-11.088 z"
           stroke-width="0"
           stroke-linejoin="miter"
           stroke-miterlimit="2"
           fill="#41badf"
           stroke="#41badf"
           transform="matrix(2.51,0,0,2.51,-762.77378,434.51124)"
           data-darkreader-inline-stroke=""
           data-darkreader-inline-fill="" />
      </g>
      <image
         xlink:href=""
         id="icon"
         style="display:none"
         x="0"
         y="0" />
    </g>
  </g>
</svg>
